# xmcd
#
# Track frame offsets: 
#        150
#        15354
#        28446
#        42798
#        56088
#        69789
#        81802
#        95027
#        107972
#        121536
#        133586
#        145772
#        164254
#        188590
#        200600
#        211658
#        224695
#        238471
#        250202
#        262256
#        276319
#
# Disc length: 4373 seconds
#
# Revision: 1
# Processed by: cddbd v1.5.2PL0 Copyright (c) Steve Scherf et al.
# Submitted via: ExactAudioCopy v0.99pb3
#
DISCID=3c111315
DTITLE=Various Artist - Battle Of Saxes Volume 1 CD2
DYEAR=2004
DGENRE=Instrumental
TTITLE0=Ben Webster - Cotton Tail
TTITLE1=Gene Ammons - Your're Not The Kind
TTITLE2=Coleman Hawkins - Sophisticated Lady
TTITLE3=Lester Young - New Lester Leaps In
TTITLE4=Don Byas - Sweet Lorraine
TTITLE5=Eddie 'Lockjaw' Davis - Lockjaw's Bounce
TTITLE6=Dexter Gordon - Dexters Deck
TTITLE7=Charlie Ventura - Big Deal
TTITLE8=Gene Ammons - Prelude To A Kiss
TTITLE9=Arnett Cobb - Cobb's Corner
TTITLE10=Lucky Thompson - Cherokee
TTITLE11=Wardell Gray - Sweet Lorraine
TTITLE12=Frank Foster - I'll Take Romance
TTITLE13=James Moody - Moody's Mode
TTITLE14=Zoot Sims - Swingin' The Blues
TTITLE15=Gerry Mullligan - A Ballad
TTITLE16=Stan Getz - The Way You Look Tonight
TTITLE17=Paul Quinichette - Sleepy Time Gal
TTITLE18=Sonny Stitt - Fine And Dandy
TTITLE19=Sonny Rollins - With A Song In My Heart
TTITLE20=Wardell Gray - The Chase
EXTD=CD 2 - 4
EXTT0=
EXTT1=
EXTT2=
EXTT3=
EXTT4=
EXTT5=
EXTT6=
EXTT7=
EXTT8=
EXTT9=
EXTT10=
EXTT11=
EXTT12=
EXTT13=
EXTT14=
EXTT15=
EXTT16=
EXTT17=
EXTT18=
EXTT19=
EXTT20=
PLAYORDER=
